<?xml version="1.0" encoding="utf-8"?>
<!-- Generator: Adobe Illustrator 28.1.0, SVG Export Plug-In . SVG Version: 6.00 Build 0)  -->
<svg version="1.1" id="Layer_1" xmlns="http://www.w3.org/2000/svg" xmlns:xlink="http://www.w3.org/1999/xlink" x="0px" y="0px"
	 viewBox="0 0 200 200" style="enable-background:new 0 0 200 200;" xml:space="preserve">
<style type="text/css">
	.st0{fill:#FFFFFF;}
</style>
<g transform="translate(0.000000,200.000000) scale(0.100000,-0.100000)">
	<path class="st0" d="M653,1632c-23-3-34-30-47-107c-2-16-14-75-26-130c-17-83-121-580-135-650c-3-11-18-85-35-164s-28-146-26-148
		c7-7,995-8,1001-1c3,2,14,49,26,104c25,119,27,130,35,170l6,32l-317-2l-317-1l6,35c13,75,17,95,26,105c5,7,107,10,290,10
		c155,0,284,3,286,7c2,3,9,30,15,60c6,29,12,62,15,73c22,103,30,145,25,146c-3,1-131,2-283,3s-279,4-282,7c-7,6,19,127,28,136
		c3,3,144,6,313,7l307,1l8,35c4,19,9,49,12,65c12,64,17,92,30,148l13,57h-36C1370,1633,670,1634,653,1632z"/>
</g>
</svg>
